<svg width="60" height="60" viewBox="0 0 60 60" fill="none" xmlns="http://www.w3.org/2000/svg">
<g clip-path="url(#clip0_10_971)">
<g filter="url(#filter0_i_10_971)">
<path d="M41.3325 0.5H19.2075C9.02477 0.5 0.77002 8.75475 0.77002 18.9375V41.0625C0.77002 51.2453 9.02477 59.5 19.2075 59.5H41.3325C51.5153 59.5 59.77 51.2453 59.77 41.0625V18.9375C59.77 8.75475 51.5153 0.5 41.3325 0.5Z" fill="url(#paint0_radial_10_971)"/>
</g>
<g filter="url(#filter1_i_10_971)">
<path fill-rule="evenodd" clip-rule="evenodd" d="M44.8165 44.7864C41.0728 48.4698 35.9368 50.7422 30.27 50.7422C24.6157 50.7422 19.4898 48.4799 15.7483 44.8107C24.2428 38.1206 36.3134 38.1125 44.8165 44.7864ZM45.0562 44.5467C48.7398 40.803 51.0122 35.6669 51.0122 30C51.0122 24.3472 48.7508 19.2227 45.0838 15.4813C38.3908 23.9987 38.3816 36.0465 45.0562 44.5467ZM44.8479 15.2445C36.3326 21.9513 24.2234 21.9432 15.7169 15.2201C19.4612 11.533 24.5999 9.25781 30.27 9.25781C35.9526 9.25781 41.1015 11.543 44.8479 15.2445ZM15.4902 15.4469C11.803 19.1911 9.52783 24.3299 9.52783 30C9.52783 35.6826 11.813 40.8315 15.5145 44.5778C22.2214 36.0626 22.2133 23.9534 15.4902 15.4469Z" fill="url(#paint1_linear_10_971)"/>
<path fill-rule="evenodd" clip-rule="evenodd" d="M44.8165 44.7864C41.0728 48.4698 35.9368 50.7422 30.27 50.7422C24.6157 50.7422 19.4898 48.4799 15.7483 44.8107C24.2428 38.1206 36.3134 38.1125 44.8165 44.7864ZM45.0562 44.5467C48.7398 40.803 51.0122 35.6669 51.0122 30C51.0122 24.3472 48.7508 19.2227 45.0838 15.4813C38.3908 23.9987 38.3816 36.0465 45.0562 44.5467ZM44.8479 15.2445C36.3326 21.9513 24.2234 21.9432 15.7169 15.2201C19.4612 11.533 24.5999 9.25781 30.27 9.25781C35.9526 9.25781 41.1015 11.543 44.8479 15.2445ZM15.4902 15.4469C11.803 19.1911 9.52783 24.3299 9.52783 30C9.52783 35.6826 11.813 40.8315 15.5145 44.5778C22.2214 36.0626 22.2133 23.9534 15.4902 15.4469Z" fill="url(#paint2_radial_10_971)"/>
</g>
</g>
<defs>
<filter id="filter0_i_10_971" x="0.77002" y="0.5" width="59" height="59" filterUnits="userSpaceOnUse" color-interpolation-filters="sRGB">
<feFlood flood-opacity="0" result="BackgroundImageFix"/>
<feBlend mode="normal" in="SourceGraphic" in2="BackgroundImageFix" result="shape"/>
<feColorMatrix in="SourceAlpha" type="matrix" values="0 0 0 0 0 0 0 0 0 0 0 0 0 0 0 0 0 0 127 0" result="hardAlpha"/>
<feOffset/>
<feGaussianBlur stdDeviation="5"/>
<feComposite in2="hardAlpha" operator="arithmetic" k2="-1" k3="1"/>
<feColorMatrix type="matrix" values="0 0 0 0 0.300667 0 0 0 0 0 0 0 0 0 0.683333 0 0 0 0.5 0"/>
<feBlend mode="normal" in2="shape" result="effect1_innerShadow_10_971"/>
</filter>
<filter id="filter1_i_10_971" x="9.52783" y="9.25781" width="41.4844" height="45.0705" filterUnits="userSpaceOnUse" color-interpolation-filters="sRGB">
<feFlood flood-opacity="0" result="BackgroundImageFix"/>
<feBlend mode="normal" in="SourceGraphic" in2="BackgroundImageFix" result="shape"/>
<feColorMatrix in="SourceAlpha" type="matrix" values="0 0 0 0 0 0 0 0 0 0 0 0 0 0 0 0 0 0 127 0" result="hardAlpha"/>
<feOffset dy="3.58611"/>
<feGaussianBlur stdDeviation="1.79306"/>
<feComposite in2="hardAlpha" operator="arithmetic" k2="-1" k3="1"/>
<feColorMatrix type="matrix" values="0 0 0 0 0 0 0 0 0 0 0 0 0 0 0 0 0 0 0.2 0"/>
<feBlend mode="overlay" in2="shape" result="effect1_innerShadow_10_971"/>
</filter>
<radialGradient id="paint0_radial_10_971" cx="0" cy="0" r="1" gradientUnits="userSpaceOnUse" gradientTransform="translate(4.21796 5.67545) rotate(44.1095) scale(70.6387 70.4234)">
<stop stop-color="#8000FF"/>
<stop offset="0.505208" stop-color="#A732D6"/>
<stop offset="1" stop-color="#EF79FF"/>
</radialGradient>
<linearGradient id="paint1_linear_10_971" x1="30.27" y1="9.25781" x2="30.27" y2="50.7422" gradientUnits="userSpaceOnUse">
<stop stop-color="white"/>
<stop offset="1" stop-color="white" stop-opacity="0.7"/>
</linearGradient>
<radialGradient id="paint2_radial_10_971" cx="0" cy="0" r="1" gradientUnits="userSpaceOnUse" gradientTransform="translate(30.27 30) rotate(90) scale(20.7422)">
<stop offset="0.90625" stop-color="white" stop-opacity="0"/>
<stop offset="1" stop-color="white"/>
</radialGradient>
<clipPath id="clip0_10_971">
<rect width="59" height="59" fill="white" transform="translate(0.77002 0.5)"/>
</clipPath>
</defs>
</svg>
