<svg width="16" height="17" viewBox="0 0 16 17" fill="none" xmlns="http://www.w3.org/2000/svg">
<path d="M5.33397 8.02734C5.33397 6.55464 6.52756 5.36046 8.00032 5.36046C9.47308 5.36046 10.6673 6.55464 10.6673 8.02734C10.6673 9.50005 9.47308 10.6942 8.00032 10.6942C6.52756 10.6942 5.33397 9.50005 5.33397 8.02734ZM3.89225 8.02734C3.89225 10.2961 5.73143 12.1352 8.00032 12.1352C10.2692 12.1352 12.1084 10.2961 12.1084 8.02734C12.1084 5.75854 10.2692 3.91944 8.00032 3.91944C5.73143 3.91944 3.89225 5.75854 3.89225 8.02734ZM11.311 3.75656C11.3109 3.94643 11.3671 4.13206 11.4726 4.28997C11.578 4.44789 11.7279 4.57099 11.9033 4.64372C12.0787 4.71645 12.2717 4.73554 12.4579 4.69857C12.6442 4.6616 12.8153 4.57024 12.9496 4.43604C13.0839 4.30183 13.1754 4.13081 13.2125 3.94461C13.2497 3.7584 13.2307 3.56537 13.1581 3.38992C13.0855 3.21448 12.9625 3.0645 12.8047 2.95895C12.6469 2.8534 12.4613 2.79702 12.2714 2.79694C12.0169 2.79706 11.7724 2.89819 11.5924 3.07812C11.4124 3.25804 11.3112 3.50205 11.311 3.75656ZM4.76819 14.5392C3.98819 14.5036 3.56424 14.3737 3.2825 14.264C2.90898 14.1185 2.64247 13.9454 2.36227 13.6656C2.08207 13.3857 1.90862 13.1195 1.76385 12.746C1.65402 12.4644 1.52409 12.0403 1.48864 11.2604C1.44985 10.4171 1.44211 10.1638 1.44211 8.02741C1.44211 5.89102 1.45049 5.63842 1.48864 4.79445C1.52416 4.01448 1.65504 3.59125 1.76385 3.30882C1.90926 2.93531 2.08245 2.66882 2.36227 2.38862C2.64209 2.10843 2.90834 1.93499 3.2825 1.79022C3.56411 1.6804 3.98819 1.55048 4.76819 1.51502C5.61149 1.47624 5.86481 1.4685 8.00032 1.4685C10.1358 1.4685 10.3894 1.47688 11.2334 1.51502C12.0134 1.55054 12.4367 1.68142 12.7191 1.79022C13.0926 1.93499 13.3591 2.10882 13.6393 2.38862C13.9195 2.66843 14.0923 2.93531 14.2378 3.30882C14.3476 3.59042 14.4775 4.01448 14.513 4.79445C14.5518 5.63842 14.5595 5.89102 14.5595 8.02741C14.5595 10.1638 14.5518 10.4164 14.513 11.2604C14.4774 12.0403 14.3469 12.4643 14.2378 12.746C14.0923 13.1195 13.9191 13.386 13.6393 13.6656C13.3595 13.9451 13.0926 14.1185 12.7191 14.264C12.4375 14.3738 12.0134 14.5037 11.2334 14.5392C10.3901 14.5779 10.1368 14.5857 8.00032 14.5857C5.86385 14.5857 5.61123 14.5779 4.76819 14.5392ZM4.70195 0.0757918C3.85027 0.114576 3.26829 0.249616 2.76005 0.447376C2.23369 0.6516 1.7881 0.925584 1.34284 1.37013C0.897572 1.81467 0.624281 2.26094 0.420049 2.78728C0.222281 3.29582 0.0872355 3.87746 0.0484499 4.7291C0.00902436 5.5821 0 5.8548 0 8.02734C0 10.1999 0.00902436 10.4726 0.0484499 11.3256C0.0872355 12.1773 0.222281 12.7589 0.420049 13.2674C0.624281 13.7934 0.897636 14.2402 1.34284 14.6846C1.78804 15.1289 2.23369 15.4025 2.76005 15.6073C3.26925 15.8051 3.85027 15.9401 4.70195 15.9789C5.55542 16.0177 5.82769 16.0273 8.00032 16.0273C10.173 16.0273 10.4457 16.0183 11.2987 15.9789C12.1504 15.9401 12.732 15.8051 13.2406 15.6073C13.7666 15.4025 14.2125 15.1291 14.6578 14.6846C15.1031 14.24 15.3758 13.7934 15.5806 13.2674C15.7784 12.7589 15.914 12.1772 15.9522 11.3256C15.991 10.472 16 10.1999 16 8.02734C16 5.8548 15.991 5.5821 15.9522 4.7291C15.9134 3.87739 15.7784 3.2955 15.5806 2.78728C15.3758 2.26126 15.1024 1.81538 14.6578 1.37013C14.2132 0.92488 13.7666 0.6516 13.2412 0.447376C12.732 0.249616 12.1504 0.113936 11.2993 0.0757918C10.4463 0.0370077 10.1736 0.0273438 8.00096 0.0273438C5.82833 0.0273438 5.55542 0.0363678 4.70195 0.0757918Z" fill="#5A29C1"/>
</svg>
