<svg width="147" height="55" viewBox="0 0 147 55" fill="none" xmlns="http://www.w3.org/2000/svg">
<path d="M72.872 35.562H61.772L59.885 42H56.555L64.399 16.1H70.245L78.089 42H74.759L72.872 35.562ZM67.1 17.432L62.623 32.676H72.021L67.544 17.432H67.1ZM84.0943 49.4H81.2083V23.648H84.0943V26.534H84.5383C85.1796 25.424 86.0676 24.5853 87.2023 24.018C88.3369 23.426 89.5703 23.13 90.9023 23.13C92.0369 23.13 93.1099 23.3397 94.1213 23.759C95.1326 24.1783 96.0206 24.7827 96.7853 25.572C97.5746 26.3613 98.1913 27.3357 98.6353 28.495C99.1039 29.6543 99.3383 30.974 99.3383 32.454V33.194C99.3383 34.6987 99.1163 36.0307 98.6723 37.19C98.2283 38.3493 97.6116 39.3237 96.8223 40.113C96.0576 40.9023 95.1573 41.5067 94.1213 41.926C93.0853 42.3207 91.9876 42.518 90.8283 42.518C90.2363 42.518 89.6319 42.444 89.0153 42.296C88.3986 42.1727 87.8066 41.9753 87.2393 41.704C86.6966 41.408 86.1909 41.0627 85.7223 40.668C85.2536 40.2487 84.8589 39.7553 84.5383 39.188H84.0943V49.4ZM90.2363 39.78C91.1243 39.78 91.9383 39.632 92.6783 39.336C93.4183 39.0153 94.0596 38.5713 94.6023 38.004C95.1696 37.4367 95.6013 36.746 95.8973 35.932C96.2179 35.118 96.3783 34.2053 96.3783 33.194V32.454C96.3783 31.4673 96.2179 30.5793 95.8973 29.79C95.6013 28.976 95.1696 28.2853 94.6023 27.718C94.0596 27.126 93.4059 26.6697 92.6413 26.349C91.9013 26.0283 91.0996 25.868 90.2363 25.868C89.3729 25.868 88.5713 26.0407 87.8313 26.386C87.0913 26.7067 86.4376 27.163 85.8703 27.755C85.3276 28.347 84.8959 29.0623 84.5753 29.901C84.2546 30.715 84.0943 31.6153 84.0943 32.602V33.046C84.0943 34.0573 84.2546 34.9823 84.5753 35.821C84.8959 36.635 85.3276 37.338 85.8703 37.93C86.4376 38.522 87.0913 38.9783 87.8313 39.299C88.5713 39.6197 89.3729 39.78 90.2363 39.78ZM117.85 38.892H117.406C116.814 40.1253 115.987 41.038 114.927 41.63C113.891 42.222 112.793 42.518 111.634 42.518C110.425 42.518 109.303 42.3207 108.267 41.926C107.231 41.5067 106.318 40.9023 105.529 40.113C104.764 39.299 104.16 38.3123 103.716 37.153C103.272 35.9937 103.05 34.6493 103.05 33.12V32.528C103.05 31.0233 103.272 29.6913 103.716 28.532C104.16 27.3727 104.764 26.3983 105.529 25.609C106.318 24.795 107.231 24.1783 108.267 23.759C109.303 23.3397 110.4 23.13 111.56 23.13C112.818 23.13 113.952 23.4137 114.964 23.981C116 24.5237 116.814 25.3747 117.406 26.534H117.85V23.648H120.736V38.226C120.736 38.966 121.069 39.336 121.735 39.336H122.66V42H120.699C119.86 42 119.169 41.7287 118.627 41.186C118.109 40.6433 117.85 39.9527 117.85 39.114V38.892ZM111.93 39.78C112.793 39.78 113.582 39.6197 114.298 39.299C115.038 38.9783 115.667 38.522 116.185 37.93C116.703 37.338 117.11 36.635 117.406 35.821C117.702 34.9823 117.85 34.0573 117.85 33.046V32.602C117.85 31.6153 117.702 30.715 117.406 29.901C117.11 29.0623 116.69 28.347 116.148 27.755C115.63 27.163 115.001 26.7067 114.261 26.386C113.545 26.0407 112.768 25.868 111.93 25.868C111.066 25.868 110.277 26.0283 109.562 26.349C108.846 26.6697 108.217 27.126 107.675 27.718C107.157 28.2853 106.75 28.9883 106.454 29.827C106.158 30.641 106.01 31.5413 106.01 32.528V33.12C106.01 35.2167 106.552 36.857 107.638 38.041C108.748 39.2003 110.178 39.78 111.93 39.78ZM127.185 39.336H133.845V18.764H127.407V16.1H136.731V39.336H143.391V42H127.185V39.336Z" fill="white"/>
<path fill-rule="evenodd" clip-rule="evenodd" d="M49.9934 30.5805C49.6848 44.1195 38.613 55 25 55C11.1929 55 0 43.8071 0 30C0 16.1929 11.1929 5 25 5C25 5 25 5 25 5C18.4151 5 12.097 7.60268 7.42261 12.2408C7.41012 12.2514 7.39725 12.2612 7.38439 12.271C7.36318 12.2872 7.34199 12.3033 7.32261 12.3227C7.30317 12.3422 7.28698 12.3634 7.27082 12.3846C7.2611 12.3974 7.25139 12.4101 7.24099 12.4225C2.60273 17.0969 0 23.4151 0 30.0001C0 36.5852 2.60273 42.9034 7.24099 47.5778C7.25139 47.5902 7.2611 47.6029 7.27082 47.6157C7.28698 47.6369 7.30317 47.6581 7.32261 47.6776C7.34225 47.6972 7.36373 47.7135 7.38523 47.7299C7.39781 47.7394 7.41039 47.749 7.42261 47.7592C12.097 52.3973 18.4151 55 25 55C31.585 55 37.9031 52.3973 42.5775 47.7592C42.5897 47.749 42.6023 47.7394 42.6149 47.7299C42.6364 47.7135 42.6578 47.6972 42.6775 47.6776C42.6969 47.6581 42.7131 47.6369 42.7293 47.6157C42.739 47.6029 42.7487 47.5902 42.7591 47.5778C47.2609 43.0409 49.8452 36.9555 49.9934 30.5805ZM49.9937 29.4366C49.8498 23.0555 47.2649 16.9634 42.7591 12.4225C42.7487 12.4101 42.739 12.3974 42.7293 12.3846C42.7131 12.3634 42.6969 12.3421 42.6775 12.3227C42.6581 12.3033 42.6369 12.2872 42.6157 12.271C42.6028 12.2612 42.59 12.2514 42.5775 12.2408C37.9031 7.60268 31.585 5 25 5C38.6189 5.00001 49.6942 15.8897 49.9937 29.4366ZM9.87628 31.4707H2.99149C3.31063 36.2964 5.21349 40.8818 8.40447 44.5158L13.2704 39.6504C11.3484 37.3235 10.1664 34.4748 9.87628 31.4707ZM13.2702 20.3497L8.40496 15.4845C5.21372 19.1184 3.31108 23.7039 2.99173 28.5296H9.87653C10.1664 25.5254 11.3483 22.6767 13.2702 20.3497ZM40.1236 28.5296H47.0084C46.6889 23.7038 44.7862 19.1184 41.5949 15.4845L36.7295 20.3499C38.6514 22.6768 39.8335 25.5255 40.1236 28.5296ZM18.1916 40.1897C20.2069 41.5363 22.5763 42.255 25 42.255C28.2491 42.2514 31.3641 40.9591 33.6616 38.6617C35.959 36.3642 37.2513 33.2492 37.2549 30.0001C37.2549 27.5764 36.5362 25.207 35.1896 23.1917C33.843 21.1764 31.9291 19.6056 29.6898 18.6781C27.4505 17.7506 24.9865 17.5079 22.6092 17.9807C20.232 18.4536 18.0484 19.6208 16.3345 21.3346C14.6207 23.0485 13.4535 25.2321 12.9806 27.6093C12.5078 29.9866 12.7505 32.4506 13.678 34.6899C14.6055 36.9292 16.1763 38.8431 18.1916 40.1897ZM26.4706 14.8764C29.4747 15.1665 32.3233 16.3485 34.6503 18.2705L39.5157 13.4051C35.8818 10.2138 31.2963 8.31092 26.4706 7.99159V14.8764ZM15.3498 18.2705C17.6768 16.3485 20.5254 15.1665 23.5295 14.8764V7.99183C18.7038 8.31096 14.1184 10.2136 10.4844 13.4046L15.3498 18.2705ZM23.5295 45.1239C20.5254 44.8338 17.6768 43.6518 15.3498 41.7298L10.4844 46.5952C14.1183 49.7865 18.7037 51.6894 23.5295 52.0087V45.1239ZM34.6503 41.7298C32.3233 43.6518 29.4747 44.8338 26.4706 45.1239V52.0087C31.2963 51.6894 35.8818 49.7865 39.5157 46.5952L34.6503 41.7298ZM40.1238 31.4707C39.8337 34.4748 38.6517 37.3235 36.7297 39.6504L41.5954 44.5158C44.7865 40.8819 46.6893 36.2964 47.0086 31.4707H40.1238Z" fill="#C4C4C4"/>
<path fill-rule="evenodd" clip-rule="evenodd" d="M49.9934 30.5805C49.6848 44.1195 38.613 55 25 55C11.1929 55 0 43.8071 0 30C0 16.1929 11.1929 5 25 5C25 5 25 5 25 5C18.4151 5 12.097 7.60268 7.42261 12.2408C7.41012 12.2514 7.39725 12.2612 7.38439 12.271C7.36318 12.2872 7.34199 12.3033 7.32261 12.3227C7.30317 12.3422 7.28698 12.3634 7.27082 12.3846C7.2611 12.3974 7.25139 12.4101 7.24099 12.4225C2.60273 17.0969 0 23.4151 0 30.0001C0 36.5852 2.60273 42.9034 7.24099 47.5778C7.25139 47.5902 7.2611 47.6029 7.27082 47.6157C7.28698 47.6369 7.30317 47.6581 7.32261 47.6776C7.34225 47.6972 7.36373 47.7135 7.38523 47.7299C7.39781 47.7394 7.41039 47.749 7.42261 47.7592C12.097 52.3973 18.4151 55 25 55C31.585 55 37.9031 52.3973 42.5775 47.7592C42.5897 47.749 42.6023 47.7394 42.6149 47.7299C42.6364 47.7135 42.6578 47.6972 42.6775 47.6776C42.6969 47.6581 42.7131 47.6369 42.7293 47.6157C42.739 47.6029 42.7487 47.5902 42.7591 47.5778C47.2609 43.0409 49.8452 36.9555 49.9934 30.5805ZM49.9937 29.4366C49.8498 23.0555 47.2649 16.9634 42.7591 12.4225C42.7487 12.4101 42.739 12.3974 42.7293 12.3846C42.7131 12.3634 42.6969 12.3421 42.6775 12.3227C42.6581 12.3033 42.6369 12.2872 42.6157 12.271C42.6028 12.2612 42.59 12.2514 42.5775 12.2408C37.9031 7.60268 31.585 5 25 5C38.6189 5.00001 49.6942 15.8897 49.9937 29.4366ZM9.87628 31.4707H2.99149C3.31063 36.2964 5.21349 40.8818 8.40447 44.5158L13.2704 39.6504C11.3484 37.3235 10.1664 34.4748 9.87628 31.4707ZM13.2702 20.3497L8.40496 15.4845C5.21372 19.1184 3.31108 23.7039 2.99173 28.5296H9.87653C10.1664 25.5254 11.3483 22.6767 13.2702 20.3497ZM40.1236 28.5296H47.0084C46.6889 23.7038 44.7862 19.1184 41.5949 15.4845L36.7295 20.3499C38.6514 22.6768 39.8335 25.5255 40.1236 28.5296ZM18.1916 40.1897C20.2069 41.5363 22.5763 42.255 25 42.255C28.2491 42.2514 31.3641 40.9591 33.6616 38.6617C35.959 36.3642 37.2513 33.2492 37.2549 30.0001C37.2549 27.5764 36.5362 25.207 35.1896 23.1917C33.843 21.1764 31.9291 19.6056 29.6898 18.6781C27.4505 17.7506 24.9865 17.5079 22.6092 17.9807C20.232 18.4536 18.0484 19.6208 16.3345 21.3346C14.6207 23.0485 13.4535 25.2321 12.9806 27.6093C12.5078 29.9866 12.7505 32.4506 13.678 34.6899C14.6055 36.9292 16.1763 38.8431 18.1916 40.1897ZM26.4706 14.8764C29.4747 15.1665 32.3233 16.3485 34.6503 18.2705L39.5157 13.4051C35.8818 10.2138 31.2963 8.31092 26.4706 7.99159V14.8764ZM15.3498 18.2705C17.6768 16.3485 20.5254 15.1665 23.5295 14.8764V7.99183C18.7038 8.31096 14.1184 10.2136 10.4844 13.4046L15.3498 18.2705ZM23.5295 45.1239C20.5254 44.8338 17.6768 43.6518 15.3498 41.7298L10.4844 46.5952C14.1183 49.7865 18.7037 51.6894 23.5295 52.0087V45.1239ZM34.6503 41.7298C32.3233 43.6518 29.4747 44.8338 26.4706 45.1239V52.0087C31.2963 51.6894 35.8818 49.7865 39.5157 46.5952L34.6503 41.7298ZM40.1238 31.4707C39.8337 34.4748 38.6517 37.3235 36.7297 39.6504L41.5954 44.5158C44.7865 40.8819 46.6893 36.2964 47.0086 31.4707H40.1238Z" fill="#5A29C1"/>
<path d="M27.4536 34H22.5464L21.8454 37H19L22.4433 23H27.5567L31 37H28.1546L27.4536 34ZM23.1237 31.48H26.8557L25.1856 24.32H24.8144L23.1237 31.48Z" fill="white"/>
</svg>
